<?xml version="1.0" encoding="UTF-8" standalone="no"?>
<svg
   width="68.219139mm"
   height="75mm"
   viewBox="0 0 68.21914 75"
   version="1.1"
   id="svg8"
   inkscape:version="1.1.2 (0a00cf5339, 2022-02-04)"
   sodipodi:docname="HelT.svg"
   xmlns:inkscape="http://www.inkscape.org/namespaces/inkscape"
   xmlns:sodipodi="http://sodipodi.sourceforge.net/DTD/sodipodi-0.dtd"
   xmlns="http://www.w3.org/2000/svg"
   xmlns:svg="http://www.w3.org/2000/svg"
   xmlns:rdf="http://www.w3.org/1999/02/22-rdf-syntax-ns#"
   xmlns:cc="http://creativecommons.org/ns#"
   xmlns:dc="http://purl.org/dc/elements/1.1/">
  <defs
     id="defs2">
    <marker
       style="overflow:visible"
       id="marker3568"
       refX="0"
       refY="0"
       orient="auto"
       inkscape:stockid="Arrow1Mend"
       inkscape:isstock="true">
      <path
         transform="matrix(-0.4,0,0,-0.4,-4,0)"
         style="fill:context-stroke;fill-rule:evenodd;stroke:context-stroke;stroke-width:1pt"
         d="M 0,0 5,-5 -12.5,0 5,5 Z"
         id="path3566" />
    </marker>
    <marker
       style="overflow:visible"
       id="Arrow1Lend"
       refX="0"
       refY="0"
       orient="auto"
       inkscape:stockid="Arrow1Lend"
       inkscape:isstock="true">
      <path
         transform="matrix(-0.8,0,0,-0.8,-10,0)"
         style="fill:context-stroke;fill-rule:evenodd;stroke:context-stroke;stroke-width:1pt"
         d="M 0,0 5,-5 -12.5,0 5,5 Z"
         id="path1518" />
    </marker>
    <marker
       style="overflow:visible"
       id="Arrow1Mend"
       refX="0"
       refY="0"
       orient="auto"
       inkscape:stockid="Arrow1Mend"
       inkscape:isstock="true">
      <path
         transform="matrix(-0.4,0,0,-0.4,-4,0)"
         style="fill:context-stroke;fill-rule:evenodd;stroke:context-stroke;stroke-width:1pt"
         d="M 0,0 5,-5 -12.5,0 5,5 Z"
         id="path1524" />
    </marker>
    <clipPath
       clipPathUnits="userSpaceOnUse"
       id="clipPath1905">
      <rect
         style="fill:#000000;stroke:#000001;stroke-width:0.16321"
         id="rect1907"
         width="31.512497"
         height="49.841965"
         x="95.089951"
         y="41.327789"
         transform="rotate(9.9520859)" />
    </clipPath>
    <marker
       style="overflow:visible"
       id="Arrow1Mstart"
       refX="0"
       refY="0"
       orient="auto"
       inkscape:stockid="Arrow1Mstart"
       inkscape:isstock="true">
      <path
         transform="matrix(0.4,0,0,0.4,4,0)"
         style="fill:context-stroke;fill-rule:evenodd;stroke:context-stroke;stroke-width:1pt"
         d="M 0,0 5,-5 -12.5,0 5,5 Z"
         id="path1521" />
    </marker>
    <marker
       style="overflow:visible"
       id="Arrow1Mend-7"
       refX="0"
       refY="0"
       orient="auto"
       inkscape:stockid="Arrow1Mend"
       inkscape:isstock="true">
      <path
         transform="matrix(-0.4,0,0,-0.4,-4,0)"
         style="fill:context-stroke;fill-rule:evenodd;stroke:context-stroke;stroke-width:1pt"
         d="M 0,0 5,-5 -12.5,0 5,5 Z"
         id="path1524-4" />
    </marker>
  </defs>
  <sodipodi:namedview
     id="base"
     pagecolor="#ffffff"
     bordercolor="#666666"
     borderopacity="1.0"
     inkscape:pageopacity="0"
     inkscape:pageshadow="2"
     inkscape:zoom="2"
     inkscape:cx="58"
     inkscape:cy="43.5"
     inkscape:document-units="mm"
     inkscape:current-layer="layer1"
     inkscape:document-rotation="0"
     showgrid="false"
     inkscape:window-width="1920"
     inkscape:window-height="1043"
     inkscape:window-x="0"
     inkscape:window-y="0"
     inkscape:window-maximized="1"
     inkscape:pagecheckerboard="0"
     fit-margin-top="0"
     fit-margin-left="0"
     fit-margin-right="0"
     fit-margin-bottom="0" />
  <metadata
     id="metadata5">
    <rdf:RDF>
      <cc:Work
         rdf:about="">
        <dc:format>image/svg+xml</dc:format>
        <dc:type
           rdf:resource="http://purl.org/dc/dcmitype/StillImage" />
      </cc:Work>
    </rdf:RDF>
  </metadata>
  <g
     inkscape:label="Layer 1"
     inkscape:groupmode="layer"
     id="layer1"
     transform="translate(-40.107848,-34.0052)">
    <path
       sodipodi:type="spiral"
       style="fill:none;fill-rule:evenodd;stroke:#000000"
       id="path7201"
       sodipodi:cx="440.94238"
       sodipodi:cy="156.73669"
       sodipodi:expansion="1"
       sodipodi:revolution="3"
       sodipodi:radius="38.117741"
       sodipodi:argument="-17.060921"
       sodipodi:t0="0"
       d="m 440.94238,156.73669 c -0.41304,1.866 -2.7191,0.36385 -3.10141,-0.6865 -1.03601,-2.84637 1.90221,-5.28333 4.47441,-5.51631 4.60107,-0.41675 7.96871,3.97127 7.93123,8.26232 -0.055,6.29728 -6.05845,10.70611 -12.05023,10.34613 -7.9861,-0.47981 -13.46405,-8.15075 -12.76104,-15.83814 0.88467,-9.67379 10.24518,-16.23226 19.62605,-15.17594 11.36149,1.27934 19.00636,12.34073 17.59085,23.41395 -1.66814,13.0494 -14.43699,21.78416 -27.20186,20.00576 -14.73755,-2.05323 -24.56441,-16.53371 -22.42067,-30.98977 2.43586,-16.42589 18.63076,-27.34639 34.77768,-24.83558 18.1144,2.81676 30.12962,20.72806 27.25048,38.56559 -3.19639,19.80304 -22.82553,32.91379 -42.3535,29.66539"
       transform="matrix(1.0701488,0,0,1.0701488,-401.04643,-99.617548)" />
  </g>
</svg>
