<?xml version="1.0" encoding="UTF-8" standalone="no"?>
<svg
   width="75.435692mm"
   height="75mm"
   viewBox="0 0 75.435692 75"
   version="1.1"
   id="svg8"
   inkscape:version="1.1.2 (0a00cf5339, 2022-02-04)"
   sodipodi:docname="ProT.svg"
   inkscape:export-filename="/home/jeremy/src/DNAshape_motif_finder/python3/img/ProT.png"
   inkscape:export-xdpi="258.89999"
   inkscape:export-ydpi="258.89999"
   xmlns:inkscape="http://www.inkscape.org/namespaces/inkscape"
   xmlns:sodipodi="http://sodipodi.sourceforge.net/DTD/sodipodi-0.dtd"
   xmlns="http://www.w3.org/2000/svg"
   xmlns:svg="http://www.w3.org/2000/svg"
   xmlns:rdf="http://www.w3.org/1999/02/22-rdf-syntax-ns#"
   xmlns:cc="http://creativecommons.org/ns#"
   xmlns:dc="http://purl.org/dc/elements/1.1/">
  <defs
     id="defs2">
    <inkscape:path-effect
       effect="powerclip"
       id="path-effect1024"
       is_visible="true"
       lpeversion="1"
       inverse="true"
       flatten="false"
       hide_clip="false"
       message="Use fill-rule evenodd on &lt;b&gt;fill and stroke&lt;/b&gt; dialog if no flatten result after convert clip to paths." />
    <inkscape:path-effect
       effect="powerclip"
       id="path-effect1020"
       is_visible="true"
       lpeversion="1"
       inverse="true"
       flatten="false"
       hide_clip="false"
       message="Use fill-rule evenodd on &lt;b&gt;fill and stroke&lt;/b&gt; dialog if no flatten result after convert clip to paths." />
    <inkscape:path-effect
       effect="powerclip"
       id="path-effect1016"
       is_visible="true"
       lpeversion="1"
       inverse="true"
       flatten="false"
       hide_clip="false"
       message="Use fill-rule evenodd on &lt;b&gt;fill and stroke&lt;/b&gt; dialog if no flatten result after convert clip to paths." />
    <inkscape:path-effect
       effect="powerclip"
       id="path-effect1012"
       is_visible="true"
       lpeversion="1"
       inverse="true"
       flatten="false"
       hide_clip="false"
       message="Use fill-rule evenodd on &lt;b&gt;fill and stroke&lt;/b&gt; dialog if no flatten result after convert clip to paths." />
    <marker
       style="overflow:visible"
       id="marker3568"
       refX="0"
       refY="0"
       orient="auto"
       inkscape:stockid="Arrow1Mend"
       inkscape:isstock="true">
      <path
         transform="matrix(-0.4,0,0,-0.4,-4,0)"
         style="fill:context-stroke;fill-rule:evenodd;stroke:context-stroke;stroke-width:1pt"
         d="M 0,0 5,-5 -12.5,0 5,5 Z"
         id="path3566" />
    </marker>
    <marker
       style="overflow:visible"
       id="Arrow1Lend"
       refX="0"
       refY="0"
       orient="auto"
       inkscape:stockid="Arrow1Lend"
       inkscape:isstock="true">
      <path
         transform="matrix(-0.8,0,0,-0.8,-10,0)"
         style="fill:context-stroke;fill-rule:evenodd;stroke:context-stroke;stroke-width:1pt"
         d="M 0,0 5,-5 -12.5,0 5,5 Z"
         id="path1518" />
    </marker>
    <marker
       style="overflow:visible"
       id="Arrow1Mend"
       refX="0"
       refY="0"
       orient="auto"
       inkscape:stockid="Arrow1Mend"
       inkscape:isstock="true">
      <path
         transform="matrix(-0.4,0,0,-0.4,-4,0)"
         style="fill:context-stroke;fill-rule:evenodd;stroke:context-stroke;stroke-width:1pt"
         d="M 0,0 5,-5 -12.5,0 5,5 Z"
         id="path1524" />
    </marker>
    <clipPath
       clipPathUnits="userSpaceOnUse"
       id="clipPath996">
      <circle
         style="display:none;fill:#ffffff;fill-opacity:0;stroke:#000001;stroke-width:0.916223;stroke-miterlimit:4;stroke-dasharray:none"
         id="circle998"
         cx="74.818802"
         cy="46.850201"
         r="7.2411404"
         d="m 82.059942,46.850201 a 7.2411404,7.2411404 0 0 1 -7.24114,7.24114 7.2411404,7.2411404 0 0 1 -7.24114,-7.24114 7.2411404,7.2411404 0 0 1 7.24114,-7.241141 7.2411404,7.2411404 0 0 1 7.24114,7.241141 z" />
      <path
         id="lpe_path-effect1012"
         style="fill:#ffffff;fill-opacity:0;stroke:#000001;stroke-width:0.916223;stroke-miterlimit:4;stroke-dasharray:none"
         class="powerclip"
         d="M 74.211335,36.602128 H 117.72523 V 57.098276 H 74.211335 Z m 7.848607,10.248073 a 7.2411404,7.2411404 0 0 0 -7.24114,-7.241141 7.2411404,7.2411404 0 0 0 -7.24114,7.241141 7.2411404,7.2411404 0 0 0 7.24114,7.24114 7.2411404,7.2411404 0 0 0 7.24114,-7.24114 z" />
    </clipPath>
    <clipPath
       clipPathUnits="userSpaceOnUse"
       id="clipPath1000">
      <circle
         style="display:none;fill:#ffffff;fill-opacity:0;stroke:#000001;stroke-width:0.916223;stroke-miterlimit:4;stroke-dasharray:none"
         id="circle1002"
         cx="74.818802"
         cy="46.850201"
         r="7.2411404"
         d="m 82.059942,46.850201 a 7.2411404,7.2411404 0 0 1 -7.24114,7.24114 7.2411404,7.2411404 0 0 1 -7.24114,-7.24114 7.2411404,7.2411404 0 0 1 7.24114,-7.241141 7.2411404,7.2411404 0 0 1 7.24114,7.241141 z" />
      <path
         id="lpe_path-effect1016"
         style="fill:#ffffff;fill-opacity:0;stroke:#000001;stroke-width:0.916223;stroke-miterlimit:4;stroke-dasharray:none"
         class="powerclip"
         d="M 64.570726,45.492475 H 85.066872 V 89.006363 H 64.570726 Z m 17.489216,1.357726 a 7.2411404,7.2411404 0 0 0 -7.24114,-7.241141 7.2411404,7.2411404 0 0 0 -7.24114,7.241141 7.2411404,7.2411404 0 0 0 7.24114,7.24114 7.2411404,7.2411404 0 0 0 7.24114,-7.24114 z" />
    </clipPath>
    <clipPath
       clipPathUnits="userSpaceOnUse"
       id="clipPath1004">
      <circle
         style="display:none;fill:#ffffff;fill-opacity:0;stroke:#000001;stroke-width:0.916223;stroke-miterlimit:4;stroke-dasharray:none"
         id="circle1006"
         cx="74.818802"
         cy="46.850201"
         r="7.2411404"
         d="m 82.059942,46.850201 a 7.2411404,7.2411404 0 0 1 -7.24114,7.24114 7.2411404,7.2411404 0 0 1 -7.24114,-7.24114 7.2411404,7.2411404 0 0 1 7.24114,-7.241141 7.2411404,7.2411404 0 0 1 7.24114,7.241141 z" />
      <path
         id="lpe_path-effect1020"
         style="fill:#ffffff;fill-opacity:0;stroke:#000001;stroke-width:0.916223;stroke-miterlimit:4;stroke-dasharray:none"
         class="powerclip"
         d="M 32.289536,36.602129 H 75.803424 V 57.098274 H 32.289536 Z m 49.770406,10.248072 a 7.2411404,7.2411404 0 0 0 -7.24114,-7.241141 7.2411404,7.2411404 0 0 0 -7.24114,7.241141 7.2411404,7.2411404 0 0 0 7.24114,7.24114 7.2411404,7.2411404 0 0 0 7.24114,-7.24114 z" />
    </clipPath>
    <clipPath
       clipPathUnits="userSpaceOnUse"
       id="clipPath1008">
      <circle
         style="display:none;fill:#ffffff;fill-opacity:0;stroke:#000001;stroke-width:0.916223;stroke-miterlimit:4;stroke-dasharray:none"
         id="circle1010"
         cx="74.818802"
         cy="46.850201"
         r="7.2411404"
         d="m 82.059942,46.850201 a 7.2411404,7.2411404 0 0 1 -7.24114,7.24114 7.2411404,7.2411404 0 0 1 -7.24114,-7.24114 7.2411404,7.2411404 0 0 1 7.24114,-7.241141 7.2411404,7.2411404 0 0 1 7.24114,7.241141 z" />
      <path
         id="lpe_path-effect1024"
         style="fill:#ffffff;fill-opacity:0;stroke:#000001;stroke-width:0.916223;stroke-miterlimit:4;stroke-dasharray:none"
         class="powerclip"
         d="M 64.570726,4.0063628 H 85.066872 V 47.52025 H 64.570726 Z M 82.059942,46.850201 a 7.2411404,7.2411404 0 0 0 -7.24114,-7.241141 7.2411404,7.2411404 0 0 0 -7.24114,7.241141 7.2411404,7.2411404 0 0 0 7.24114,7.24114 7.2411404,7.2411404 0 0 0 7.24114,-7.24114 z" />
    </clipPath>
  </defs>
  <sodipodi:namedview
     id="base"
     pagecolor="#ffffff"
     bordercolor="#666666"
     borderopacity="1.0"
     inkscape:pageopacity="0"
     inkscape:pageshadow="2"
     inkscape:zoom="1"
     inkscape:cx="42"
     inkscape:cy="138"
     inkscape:document-units="mm"
     inkscape:current-layer="layer1"
     inkscape:document-rotation="0"
     showgrid="false"
     inkscape:window-width="1920"
     inkscape:window-height="1043"
     inkscape:window-x="0"
     inkscape:window-y="0"
     inkscape:window-maximized="1"
     inkscape:pagecheckerboard="0"
     fit-margin-top="0"
     fit-margin-left="0"
     fit-margin-right="0"
     fit-margin-bottom="0" />
  <metadata
     id="metadata5">
    <rdf:RDF>
      <cc:Work
         rdf:about="">
        <dc:format>image/svg+xml</dc:format>
        <dc:type
           rdf:resource="http://purl.org/dc/dcmitype/StillImage" />
      </cc:Work>
    </rdf:RDF>
  </metadata>
  <g
     inkscape:label="Layer 1"
     inkscape:groupmode="layer"
     id="layer1"
     transform="translate(-37.289536,-9.0063628)">
    <path
       style="fill:none;fill-opacity:1;stroke:#000000;stroke-width:0.269053px;stroke-linecap:butt;stroke-linejoin:miter;stroke-opacity:1"
       d="m 74.640615,9.1408893 c -1.41731,0 -4.939041,10.8688807 -4.93536,16.6611237 0.0036,5.767505 2.351292,16.58371 4.93536,16.58371 2.584067,0 5.287821,-10.781204 5.291728,-16.58371 0.0039,-5.827095 -3.874419,-16.6611237 -5.291728,-16.6611237 z"
       id="path3866"
       sodipodi:nodetypes="zszsz"
       inkscape:original-d="m 74.640615,9.1408893 c -1.41731,0 -4.939041,10.8688807 -4.93536,16.6611237 0.0036,5.767505 2.351292,16.58371 4.93536,16.58371 2.584067,0 5.287821,-10.781204 5.291728,-16.58371 0.0039,-5.827095 -3.874419,-16.6611237 -5.291728,-16.6611237 z"
       clip-path="url(#clipPath1008)"
       inkscape:path-effect="#path-effect1024" />
    <path
       style="fill:none;fill-opacity:1;stroke:#000000;stroke-width:0.269053px;stroke-linecap:butt;stroke-linejoin:miter;stroke-opacity:1"
       d="m 37.424063,47.028386 c 0,1.41731 10.868881,4.939039 16.661124,4.935359 5.767505,-0.0036 16.58371,-2.351293 16.58371,-4.935359 0,-2.584068 -10.781204,-5.287823 -16.58371,-5.291728 -5.827095,-0.0039 -16.661124,3.874417 -16.661124,5.291728 z"
       id="path3866-9"
       sodipodi:nodetypes="zszsz"
       inkscape:original-d="m 37.424063,47.028386 c 0,1.41731 10.868881,4.939039 16.661124,4.935359 5.767505,-0.0036 16.58371,-2.351293 16.58371,-4.935359 0,-2.584068 -10.781204,-5.287823 -16.58371,-5.291728 -5.827095,-0.0039 -16.661124,3.874417 -16.661124,5.291728 z"
       clip-path="url(#clipPath1004)"
       inkscape:path-effect="#path-effect1020" />
    <path
       style="fill:none;fill-opacity:1;stroke:#000000;stroke-width:0.269053px;stroke-linecap:butt;stroke-linejoin:miter;stroke-opacity:1"
       d="m 74.996983,83.871836 c 1.41731,0 4.93904,-10.86888 4.93536,-16.661122 -0.0036,-5.767506 -2.351293,-16.583712 -4.93536,-16.583712 -2.584068,0 -5.287822,10.781205 -5.291728,16.583712 -0.0039,5.827093 3.874417,16.661122 5.291728,16.661122 z"
       id="path3866-8"
       sodipodi:nodetypes="zszsz"
       inkscape:original-d="m 74.996983,83.871836 c 1.41731,0 4.93904,-10.86888 4.93536,-16.661122 -0.0036,-5.767506 -2.351293,-16.583712 -4.93536,-16.583712 -2.584068,0 -5.287822,10.781205 -5.291728,16.583712 -0.0039,5.827093 3.874417,16.661122 5.291728,16.661122 z"
       clip-path="url(#clipPath1000)"
       inkscape:path-effect="#path-effect1016" />
    <path
       style="fill:none;fill-opacity:1;stroke:#000000;stroke-width:0.269053px;stroke-linecap:butt;stroke-linejoin:miter;stroke-opacity:1"
       d="m 112.5907,46.672016 c 0,-1.41731 -10.86888,-4.93904 -16.66113,-4.935359 -5.767502,0.0036 -16.583708,2.351292 -16.583708,4.935359 0,2.584073 10.781205,5.287825 16.583708,5.29173 5.8271,0.004 16.66113,-3.874423 16.66113,-5.29173 z"
       id="path3866-0"
       sodipodi:nodetypes="zszsz"
       inkscape:original-d="m 112.5907,46.672016 c 0,-1.41731 -10.86888,-4.93904 -16.66113,-4.935359 -5.767502,0.0036 -16.583708,2.351292 -16.583708,4.935359 0,2.584073 10.781205,5.287825 16.583708,5.29173 5.8271,0.004 16.66113,-3.874423 16.66113,-5.29173 z"
       clip-path="url(#clipPath996)"
       inkscape:path-effect="#path-effect1012" />
    <circle
       style="fill:#ffffff;fill-opacity:0;stroke:#000001;stroke-width:0.916222;stroke-miterlimit:4;stroke-dasharray:none"
       id="path3831"
       cx="74.818802"
       cy="46.850201"
       r="7.2411404" />
  </g>
</svg>
